<svg width="64" height="64" viewBox="0 0 64 64" fill="none" xmlns="http://www.w3.org/2000/svg">
    <path d="M12 8H52C54.2091 8 56 9.79086 56 12V52C56 54.2091 54.2091 56 52 56H12C9.79086 56 8 54.2091 8 52V12C8 9.79086 9.79086 8 12 8Z" stroke="#06B6D4" stroke-width="4" stroke-linecap="round" stroke-linejoin="round"/>
    
    <path d="M2 16H8" stroke="#06B6D4" stroke-width="4" stroke-linecap="round"/>
    <path d="M2 32H8" stroke="#06B6D4" stroke-width="4" stroke-linecap="round"/>
    <path d="M2 48H8" stroke="#06B6D4" stroke-width="4" stroke-linecap="round"/>
    <path d="M56 16H62" stroke="#06B6D4" stroke-width="4" stroke-linecap="round"/>
    <path d="M56 32H62" stroke="#06B6D4" stroke-width="4" stroke-linecap="round"/>
    <path d="M56 48H62" stroke="#06B6D4" stroke-width="4" stroke-linecap="round"/>
    
    <path d="M32 18C25.3726 18 20 23.3726 20 30V34C20 36 22 38 22 38V44H26V38H32H38V44H42V38C42 38 44 36 44 34V30C44 23.3726 38.6274 18 32 18Z" stroke="#FF0055" stroke-width="3" stroke-linecap="round" stroke-linejoin="round"/>
    <circle cx="27" cy="30" r="2.5" fill="#FF0055"/>
    <circle cx="37" cy="30" r="2.5" fill="#FF0055"/>
</svg>